<svg width="40" height="40" viewBox="0 0 40 40" fill="none" xmlns="http://www.w3.org/2000/svg">
<path fill-rule="evenodd" clip-rule="evenodd" d="M0 20C0 8.96 8.98 0 20 0L20.5596 0.00768C31.3412 0.30432 40 9.14712 40 20C40 31.02 31.04 40 20 40C8.98 40 0 31.02 0 20Z" fill="#141539"/>
<path fill-rule="evenodd" clip-rule="evenodd" d="M27.2538 27.2245C28.0336 26.447 28.0336 25.1856 27.2538 24.4058L23.1713 20.3232L27.2538 16.2383C28.0336 15.4609 28.0336 14.1765 27.2538 13.3966C26.474 12.6145 25.2126 12.6145 24.4098 13.3966L20.3502 17.4769L16.2677 13.3966C15.4648 12.6145 14.2034 12.6145 13.4235 13.3966C12.6437 14.1765 12.6437 15.4609 13.4235 16.2383L17.5062 20.3232L13.4235 24.3828C12.6437 25.1856 12.6437 26.447 13.4235 27.2245C13.8134 27.6145 14.341 27.8232 14.8456 27.8232C15.3731 27.8232 15.8777 27.6145 16.2677 27.2245L20.3502 23.1672L24.4327 27.2245C24.8226 27.6397 25.3272 27.8232 25.8318 27.8232C26.3593 27.8232 26.8639 27.6145 27.2538 27.2245Z" fill="white"/>
</svg>
