<svg width="22" height="22" viewBox="0 0 22 22" fill="none" xmlns="http://www.w3.org/2000/svg">
<path fill-rule="evenodd" clip-rule="evenodd" d="M2.98005 0.794967C4.04961 0.25 5.44974 0.25 8.25 0.25H13.75C16.5503 0.25 17.9504 0.25 19.02 0.794967C19.9608 1.27433 20.7257 2.03924 21.205 2.98005C21.75 4.04961 21.75 5.44974 21.75 8.25V13.75C21.75 16.5503 21.75 17.9504 21.205 19.02C20.7257 19.9608 19.9608 20.7257 19.02 21.205C17.9504 21.75 16.5503 21.75 13.75 21.75H8.25C5.44974 21.75 4.04961 21.75 2.98005 21.205C2.03924 20.7257 1.27433 19.9608 0.794967 19.02C0.25 17.9504 0.25 16.5503 0.25 13.75V8.25C0.25 5.44974 0.25 4.04961 0.794967 2.98005C1.27433 2.03924 2.03924 1.27433 2.98005 0.794967ZM16.162 9.89843C16.0146 10.0459 15.8064 10.1179 15.6006 10.0841C14.3224 9.87415 13.5005 9.46936 12.9559 8.89382C12.4287 8.33672 12.0878 7.54414 11.9072 6.40472C11.8747 6.19929 11.9471 5.99207 12.0942 5.845C13.1467 4.79247 14.8532 4.79247 15.9057 5.845L16.162 6.10135C17.2106 7.14988 17.2106 8.84989 16.162 9.89843ZM7.57619 10.363L10.5696 7.36956C10.8137 8.38511 11.2208 9.24255 11.8663 9.92477C12.5648 10.6629 13.487 11.1393 14.6408 11.4196L11.6368 14.4236C11.1703 14.8902 10.937 15.1235 10.6731 15.3131C10.4389 15.4815 10.1871 15.6241 9.92217 15.7383C9.62377 15.867 9.30371 15.947 8.66359 16.1071L6.52138 16.6426C6.00939 16.7706 5.7534 16.8346 5.57498 16.7647C5.41926 16.7038 5.29606 16.5805 5.23508 16.4248C5.16521 16.2464 5.22921 15.9904 5.3572 15.4784L5.89276 13.3362C6.05279 12.6961 6.1328 12.376 6.26147 12.0776C6.37571 11.8127 6.51827 11.5609 6.68667 11.3267C6.87633 11.0628 7.1096 10.8296 7.5761 10.363L7.57615 10.363L7.57618 10.363L7.57619 10.363Z" fill="white"/>
</svg>
