<svg width="20" height="20" viewBox="0 0 20 20" fill="none" xmlns="http://www.w3.org/2000/svg">
<path opacity="0.25" fill-rule="evenodd" clip-rule="evenodd" d="M4.93355 2.46679C4.93355 2.01267 5.30168 1.64453 5.7558 1.64453C6.20992 1.64453 6.57806 2.01267 6.57806 2.46679V3.28904H13.1561V2.46679C13.1561 2.01267 13.5242 1.64453 13.9783 1.64453C14.4325 1.64453 14.8006 2.01267 14.8006 2.46679V3.28904H15.6229C16.9852 3.28904 18.0896 4.39345 18.0896 5.7558V15.6229C18.0896 16.9852 16.9852 18.0896 15.6229 18.0896H4.11129C2.74894 18.0896 1.64453 16.9852 1.64453 15.6229V5.7558C1.64453 4.39345 2.74894 3.28904 4.11129 3.28904H4.93355V2.46679Z" fill="white"/>
<path fill-rule="evenodd" clip-rule="evenodd" d="M8.22261 9.86719C7.76849 9.86719 7.40036 10.2353 7.40036 10.6894C7.40036 11.1436 7.76849 11.5117 8.22261 11.5117H13.9784C14.4325 11.5117 14.8006 11.1436 14.8006 10.6894C14.8006 10.2353 14.4325 9.86719 13.9784 9.86719H8.22261ZM5.75585 13.1562C5.30173 13.1562 4.93359 13.5243 4.93359 13.9785C4.93359 14.4326 5.30173 14.8007 5.75585 14.8007H10.6894C11.1435 14.8007 11.5116 14.4326 11.5116 13.9785C11.5116 13.5243 11.1435 13.1562 10.6894 13.1562H5.75585Z" fill="white"/>
</svg>
