<svg width="16" height="17" viewBox="0 0 16 17" fill="none" xmlns="http://www.w3.org/2000/svg">
<path fill-rule="evenodd" clip-rule="evenodd" d="M7.7614 2.42564C5.13547 2.77918 2.89412 3.08376 2.7806 3.10249C1.89295 3.2488 1.17673 3.96081 1.00318 4.86951C0.945086 5.1737 0.945774 11.5488 1.00395 11.8545C1.19982 12.8836 2.10564 13.6434 3.13677 13.6434C3.27877 13.6434 7.83647 13.052 8.37368 12.9639L8.47687 12.9469L8.47693 13.9245C8.47695 15.0151 8.47954 15.0318 8.66669 15.1574C8.77613 15.2309 8.9621 15.2412 9.07938 15.1803C9.12168 15.1582 9.73742 14.5496 10.4477 13.8277L11.7391 12.5152L12.4952 12.4142C13.3512 12.2999 13.5733 12.248 13.8689 12.0933C14.4082 11.811 14.8046 11.3208 14.9767 10.7233L15.04 10.5036V7.03176V3.55996L14.9512 3.29716C14.7036 2.5642 14.1193 2.0148 13.3913 1.8307C12.9722 1.72469 12.9506 1.72696 7.7614 2.42564ZM8.03796 5.526C10.0154 5.90308 10.4896 8.49125 8.7843 9.59924C7.36054 10.5243 5.3964 9.45104 5.39503 7.74715C5.39384 6.28971 6.62352 5.25628 8.03796 5.526ZM3.32194 5.56387C3.54861 5.66733 3.53562 5.5621 3.55111 7.41781L3.56487 9.06505L4.32162 9.07888C4.97416 9.0908 5.08745 9.09916 5.14425 9.1396C5.38476 9.31079 5.36784 9.70588 5.11398 9.84519C5.03148 9.89051 4.9344 9.89496 4.03268 9.89496C2.90034 9.89496 2.90642 9.8961 2.78748 9.66024L2.72557 9.53744V7.72424C2.72557 6.62773 2.73619 5.87379 2.75243 5.81685C2.82439 5.56462 3.07736 5.45225 3.32194 5.56387ZM11.3297 5.57997C11.4956 5.68924 11.4888 5.61809 11.5039 7.41781L11.5176 9.06505L12.2757 9.07888C13.1122 9.09415 13.1344 9.09874 13.2257 9.27635C13.3278 9.47469 13.2582 9.72837 13.0714 9.83867C12.9326 9.92066 11.052 9.92636 10.9041 9.84519C10.6952 9.73056 10.7061 9.84744 10.706 7.7067L10.7058 5.79508L10.7683 5.70108C10.89 5.51792 11.1503 5.46179 11.3297 5.57997ZM7.41335 6.31541C6.46458 6.43201 5.92965 7.52011 6.39151 8.39398C6.8533 9.26769 8.20345 9.34492 8.74567 8.52862C9.43693 7.48799 8.64027 6.16459 7.41335 6.31541Z" fill="white"/>
</svg>
