<svg width="58" height="26" viewBox="0 0 58 26" fill="none" xmlns="http://www.w3.org/2000/svg">
<g opacity="0.8">
<path d="M16.6064 17.5V9.5H19.9424C20.5413 9.5 21.0426 9.58464 21.4463 9.75391C21.8525 9.92318 22.1572 10.1602 22.3604 10.4648C22.5661 10.7695 22.6689 11.1224 22.6689 11.5234C22.6689 11.8281 22.6051 12.1003 22.4775 12.3398C22.3499 12.5768 22.1742 12.7734 21.9502 12.9297C21.7262 13.0859 21.4671 13.1953 21.1729 13.2578V13.3359C21.4958 13.3516 21.7939 13.4388 22.0674 13.5977C22.3434 13.7565 22.5648 13.9779 22.7314 14.2617C22.8981 14.543 22.9814 14.8763 22.9814 15.2617C22.9814 15.6914 22.8721 16.0755 22.6533 16.4141C22.4346 16.75 22.1182 17.0156 21.7041 17.2109C21.29 17.4036 20.7874 17.5 20.1963 17.5H16.6064ZM18.54 15.9414H19.7354C20.1546 15.9414 20.4632 15.862 20.6611 15.7031C20.8617 15.5443 20.9619 15.3229 20.9619 15.0391C20.9619 14.8333 20.9137 14.6562 20.8174 14.5078C20.721 14.3568 20.5843 14.2409 20.4072 14.1602C20.2301 14.0768 20.0179 14.0352 19.7705 14.0352H18.54V15.9414ZM18.54 12.7891H19.6104C19.8213 12.7891 20.0088 12.7539 20.1729 12.6836C20.3369 12.6133 20.4645 12.5117 20.5557 12.3789C20.6494 12.2461 20.6963 12.0859 20.6963 11.8984C20.6963 11.6302 20.6012 11.4193 20.4111 11.2656C20.221 11.112 19.9645 11.0352 19.6416 11.0352H18.54V12.7891ZM27.0658 17.6133C26.4382 17.6133 25.8965 17.4896 25.4408 17.2422C24.9877 16.9922 24.6387 16.6367 24.3939 16.1758C24.1518 15.7122 24.0307 15.1615 24.0307 14.5234C24.0307 13.9036 24.1531 13.362 24.3979 12.8984C24.6426 12.4323 24.9877 12.0703 25.433 11.8125C25.8783 11.5521 26.4031 11.4219 27.0072 11.4219C27.4343 11.4219 27.8249 11.4883 28.1791 11.6211C28.5333 11.7539 28.8393 11.9505 29.0971 12.2109C29.3549 12.4714 29.5554 12.793 29.6986 13.1758C29.8419 13.556 29.9135 13.9922 29.9135 14.4844V14.9609H24.6986V13.8516H28.1361C28.1335 13.6484 28.0854 13.4674 27.9916 13.3086C27.8979 13.1497 27.7689 13.026 27.6049 12.9375C27.4434 12.8464 27.2572 12.8008 27.0463 12.8008C26.8327 12.8008 26.6413 12.849 26.4721 12.9453C26.3028 13.0391 26.1687 13.168 26.0697 13.332C25.9708 13.4935 25.9187 13.6771 25.9135 13.8828V15.0117C25.9135 15.2565 25.9617 15.4714 26.058 15.6562C26.1544 15.8385 26.2911 15.9805 26.4682 16.082C26.6452 16.1836 26.8562 16.2344 27.101 16.2344C27.2702 16.2344 27.4239 16.2109 27.5619 16.1641C27.6999 16.1172 27.8184 16.0482 27.9174 15.957C28.0163 15.8659 28.0906 15.7539 28.14 15.6211L29.8939 15.6719C29.821 16.0651 29.6609 16.4076 29.4135 16.6992C29.1687 16.9883 28.8471 17.2135 28.4486 17.375C28.0502 17.5339 27.5893 17.6133 27.0658 17.6133ZM34.6258 11.5V12.9062H30.8406V11.5H34.6258ZM31.6336 10.0625H33.5437V15.6133C33.5437 15.7305 33.562 15.8255 33.5984 15.8984C33.6375 15.9687 33.6935 16.0195 33.7664 16.0508C33.8393 16.0794 33.9266 16.0938 34.0281 16.0938C34.101 16.0938 34.1779 16.0872 34.2586 16.0742C34.3419 16.0586 34.4044 16.0456 34.4461 16.0352L34.7352 17.4141C34.644 17.4401 34.5151 17.4727 34.3484 17.5117C34.1844 17.5508 33.9878 17.5755 33.7586 17.5859C33.3107 17.6068 32.9266 17.5547 32.6062 17.4297C32.2885 17.3021 32.0451 17.1042 31.8758 16.8359C31.7091 16.5677 31.6284 16.2305 31.6336 15.8242V10.0625ZM37.6418 17.6016C37.259 17.6016 36.9191 17.5378 36.6223 17.4102C36.328 17.2799 36.0949 17.0846 35.923 16.8242C35.7538 16.5612 35.6691 16.2318 35.6691 15.8359C35.6691 15.5026 35.7277 15.2214 35.8449 14.9922C35.9621 14.763 36.1236 14.5768 36.3293 14.4336C36.535 14.2904 36.772 14.1823 37.0402 14.1094C37.3085 14.0339 37.5949 13.9831 37.8996 13.957C38.2408 13.9258 38.5155 13.8932 38.7238 13.8594C38.9322 13.8229 39.0832 13.7721 39.177 13.707C39.2733 13.6393 39.3215 13.5443 39.3215 13.4219V13.4023C39.3215 13.2018 39.2525 13.0469 39.1145 12.9375C38.9764 12.8281 38.7902 12.7734 38.5559 12.7734C38.3033 12.7734 38.1001 12.8281 37.9465 12.9375C37.7928 13.0469 37.6952 13.1979 37.6535 13.3906L35.8918 13.3281C35.9439 12.9635 36.078 12.638 36.2941 12.3516C36.5129 12.0625 36.8124 11.8359 37.1926 11.6719C37.5754 11.5052 38.035 11.4219 38.5715 11.4219C38.9543 11.4219 39.3072 11.4674 39.6301 11.5586C39.953 11.6471 40.2342 11.7773 40.4738 11.9492C40.7134 12.1185 40.8983 12.3268 41.0285 12.5742C41.1613 12.8216 41.2277 13.1042 41.2277 13.4219V17.5H39.4309V16.6641H39.384C39.2772 16.8672 39.1405 17.0391 38.9738 17.1797C38.8098 17.3203 38.6158 17.4258 38.3918 17.4961C38.1704 17.5664 37.9204 17.6016 37.6418 17.6016ZM38.2316 16.3516C38.4374 16.3516 38.6223 16.3099 38.7863 16.2266C38.953 16.1432 39.0858 16.0286 39.1848 15.8828C39.2837 15.7344 39.3332 15.5625 39.3332 15.3672V14.7969C39.2785 14.8255 39.2121 14.8516 39.134 14.875C39.0585 14.8984 38.9751 14.9206 38.884 14.9414C38.7928 14.9622 38.6991 14.9805 38.6027 14.9961C38.5064 15.0117 38.4139 15.026 38.3254 15.0391C38.1457 15.0677 37.9921 15.112 37.8645 15.1719C37.7395 15.2318 37.6431 15.3099 37.5754 15.4062C37.5103 15.5 37.4777 15.612 37.4777 15.7422C37.4777 15.9401 37.548 16.0911 37.6887 16.1953C37.8319 16.2995 38.0129 16.3516 38.2316 16.3516Z" fill="white"/>
<rect x="1.50098" y="2" width="55" height="22" rx="11" stroke="white" stroke-width="3"/>
</g>
</svg>
