<svg width="100" height="23" viewBox="0 0 100 23" fill="none" xmlns="http://www.w3.org/2000/svg">
<g opacity="0.6" clip-path="url(#clip0_6069_80304)">
<path d="M97.3333 0H2.48667C1.82716 0 1.19467 0.261987 0.728328 0.728328C0.261987 1.19467 0 1.82716 0 2.48667L0 20.18C0 20.8395 0.261987 21.472 0.728328 21.9383C1.19467 22.4047 1.82716 22.6667 2.48667 22.6667H97.3333C98.0406 22.6667 98.7189 22.3857 99.219 21.8856C99.7191 21.3855 100 20.7072 100 20V2.66667C100 1.95942 99.7191 1.28115 99.219 0.781049C98.7189 0.280952 98.0406 0 97.3333 0V0ZM99.3333 20C99.3333 20.5304 99.1226 21.0391 98.7476 21.4142C98.3725 21.7893 97.8638 22 97.3333 22H2.48667C2.00451 21.9982 1.54261 21.8059 1.20167 21.465C0.860737 21.1241 0.668423 20.6622 0.666667 20.18V2.48667C0.668423 2.00451 0.860737 1.54261 1.20167 1.20167C1.54261 0.860737 2.00451 0.668423 2.48667 0.666667H97.3333C97.8638 0.666667 98.3725 0.87738 98.7476 1.25245C99.1226 1.62753 99.3333 2.13623 99.3333 2.66667V20Z" fill="white"/>
<path d="M11.3803 7.49333H8.51367V14.6667H9.79367V11.8933H11.3803C12.9803 11.8933 13.9803 11.12 13.9803 9.69333C13.9803 8.26667 12.9803 7.49333 11.3803 7.49333ZM11.3137 10.8267H9.79367V8.62666H11.3337C12.2537 8.62666 12.7403 9.02 12.7403 9.72667C12.7403 10.4333 12.2337 10.7933 11.3337 10.7933L11.3137 10.8267Z" fill="white"/>
<path d="M16.7338 9.33334C16.3833 9.32928 16.0358 9.39858 15.7137 9.53677C15.3916 9.67497 15.102 9.879 14.8634 10.1358C14.6248 10.3926 14.4426 10.6964 14.3284 11.0278C14.2143 11.3592 14.1707 11.7108 14.2004 12.06C14.1692 12.4112 14.2114 12.765 14.3243 13.0989C14.4373 13.4329 14.6185 13.7397 14.8565 13.9998C15.0944 14.2599 15.384 14.4676 15.7066 14.6097C16.0292 14.7518 16.3779 14.8252 16.7304 14.8252C17.083 14.8252 17.4316 14.7518 17.7543 14.6097C18.0769 14.4676 18.3664 14.2599 18.6044 13.9998C18.8424 13.7397 19.0236 13.4329 19.1365 13.0989C19.2495 12.765 19.2917 12.4112 19.2604 12.06C19.2912 11.7111 19.2485 11.3597 19.1351 11.0283C19.0217 10.6969 18.8401 10.393 18.6021 10.1361C18.364 9.87916 18.0748 9.675 17.753 9.53674C17.4312 9.39848 17.084 9.32919 16.7338 9.33334ZM16.7338 13.78C15.9204 13.78 15.4004 13.1133 15.4004 12.06C15.4004 11.0067 15.9071 10.34 16.7338 10.34C17.5604 10.34 18.0671 11.0067 18.0671 12.06C18.0671 13.1133 17.5404 13.7733 16.7338 13.7733V13.78Z" fill="white"/>
<path d="M24.5205 12.9L23.5805 9.42H22.5938L21.6605 12.9L20.7138 9.42H19.4805L21.0605 14.6733H22.1005L23.0605 11.2333L24.0205 14.6733H25.0605L26.6405 9.42H25.4538L24.5205 12.9Z" fill="white"/>
<path d="M29.3331 9.33333C28.9872 9.33975 28.6463 9.4164 28.3309 9.55862C28.0155 9.70084 27.7323 9.90567 27.4985 10.1607C27.2647 10.4157 27.0852 10.7155 26.9708 11.042C26.8564 11.3685 26.8096 11.7148 26.8331 12.06C26.8053 12.4105 26.8509 12.7629 26.967 13.0948C27.0831 13.4267 27.2673 13.7306 27.5076 13.9873C27.7479 14.2439 28.0391 14.4476 28.3627 14.5852C28.6862 14.7229 29.0349 14.7915 29.3865 14.7867C29.8698 14.8127 30.3491 14.6865 30.757 14.4258C31.1648 14.165 31.4806 13.783 31.6598 13.3333L30.6665 12.92C30.5885 13.1776 30.4253 13.4011 30.2036 13.5537C29.9819 13.7063 29.7149 13.7791 29.4465 13.76C29.2552 13.7646 29.0651 13.7303 28.8875 13.6592C28.7099 13.5881 28.5486 13.4817 28.4134 13.3464C28.2781 13.2112 28.1717 13.0499 28.1006 12.8723C28.0295 12.6947 27.9952 12.5046 27.9998 12.3133H31.6798V11.9133C31.6931 10.4733 30.8798 9.33333 29.3331 9.33333ZM28.0465 11.42C28.0932 11.1139 28.2493 10.8351 28.4859 10.6352C28.7225 10.4354 29.0235 10.3282 29.3331 10.3333C29.4803 10.3209 29.6283 10.3399 29.7675 10.3892C29.9067 10.4384 30.0338 10.5167 30.1404 10.6189C30.247 10.721 30.3306 10.8447 30.3857 10.9817C30.4407 11.1187 30.466 11.2658 30.4598 11.4133L28.0465 11.42Z" fill="white"/>
<path d="M33.7937 10.2V9.42001H32.5938V14.6667H33.7937V11.9133C33.7831 11.7355 33.8102 11.5573 33.8734 11.3907C33.9367 11.2241 34.0345 11.0728 34.1605 10.9468C34.2865 10.8208 34.4378 10.7229 34.6045 10.6597C34.7711 10.5965 34.9492 10.5693 35.1271 10.58C35.2736 10.5697 35.4206 10.5697 35.5671 10.58V9.38001C35.4737 9.38001 35.3671 9.38001 35.2271 9.38001C34.9347 9.36486 34.6441 9.4341 34.39 9.57949C34.1358 9.72488 33.9289 9.94027 33.7937 10.2Z" fill="white"/>
<path d="M38.3204 9.33333C37.9746 9.33975 37.6336 9.4164 37.3182 9.55862C37.0028 9.70084 36.7197 9.90567 36.4859 10.1607C36.2521 10.4157 36.0725 10.7155 35.9581 11.042C35.8437 11.3685 35.7969 11.7148 35.8204 12.06C35.7926 12.4105 35.8382 12.7629 35.9543 13.0948C36.0704 13.4267 36.2546 13.7306 36.4949 13.9873C36.7352 14.2439 37.0265 14.4476 37.35 14.5852C37.6735 14.7229 38.0222 14.7915 38.3738 14.7867C38.8527 14.807 39.3261 14.6781 39.7286 14.4178C40.131 14.1574 40.4427 13.7785 40.6204 13.3333L39.5938 12.94C39.5158 13.1976 39.3526 13.4211 39.1309 13.5737C38.9092 13.7264 38.6423 13.7991 38.3738 13.78C38.1865 13.7783 38.0014 13.7393 37.8292 13.6655C37.6571 13.5916 37.5014 13.4842 37.3711 13.3496C37.2408 13.215 37.1386 13.0558 37.0704 12.8813C37.0022 12.7069 36.9694 12.5206 36.9738 12.3333H40.6671V11.9333C40.6671 10.4733 39.8404 9.33333 38.3204 9.33333ZM37.0338 11.42C37.0818 11.1162 37.2376 10.8399 37.4726 10.6416C37.7077 10.4433 38.0063 10.3362 38.3138 10.34C38.4609 10.3276 38.609 10.3466 38.7482 10.3958C38.8874 10.4451 39.0145 10.5234 39.121 10.6255C39.2276 10.7277 39.3112 10.8514 39.3663 10.9884C39.4214 11.1253 39.4466 11.2725 39.4404 11.42H37.0338Z" fill="white"/>
<path d="M45.0397 10C44.8547 9.78292 44.6232 9.61027 44.3624 9.49486C44.1016 9.37945 43.8181 9.32424 43.5331 9.33333C42.0597 9.33333 41.2197 10.5667 41.2197 12.06C41.2197 13.5533 42.0597 14.7867 43.5331 14.7867C43.8183 14.7972 44.1023 14.7427 44.3633 14.6272C44.6244 14.5117 44.8557 14.3382 45.0397 14.12V14.6667H46.2397V7.49333H45.0397V10ZM45.0397 12.2333C45.0666 12.4234 45.0521 12.6171 44.9973 12.8011C44.9424 12.985 44.8485 13.155 44.7219 13.2993C44.5953 13.4436 44.439 13.5589 44.2637 13.6373C44.0885 13.7156 43.8984 13.7552 43.7064 13.7533C42.8331 13.7533 42.3731 13.0867 42.3731 12.0733C42.3731 11.06 42.8397 10.3933 43.7064 10.3933C44.4464 10.3933 45.0397 10.9333 45.0397 11.92V12.2333Z" fill="white"/>
<path d="M52.8738 9.33333C52.5834 9.32063 52.2939 9.37403 52.0271 9.48951C51.7603 9.605 51.5233 9.77955 51.3338 10V7.49333H50.1338V14.6667H51.3338V14.1133C51.5198 14.3309 51.7524 14.5039 52.0144 14.6193C52.2764 14.7347 52.561 14.7896 52.8471 14.78C54.3138 14.78 55.1538 13.54 55.1538 12.0533C55.1538 10.5667 54.3405 9.33333 52.8738 9.33333ZM52.6671 13.7333C52.4752 13.7352 52.285 13.6956 52.1098 13.6173C51.9345 13.5389 51.7782 13.4236 51.6516 13.2793C51.525 13.135 51.4311 12.965 51.3762 12.7811C51.3214 12.5971 51.3069 12.4034 51.3338 12.2133V11.9C51.3338 10.9133 51.8938 10.3733 52.6671 10.3733C53.5338 10.3733 54.0005 11.04 54.0005 12.0533C54.0005 13.0667 53.5005 13.7333 52.6671 13.7333Z" fill="white"/>
<path d="M57.9537 13.1067L56.6671 9.42H55.4004L57.3337 14.48L57.1337 14.9733C57.0997 15.1424 57.0016 15.2916 56.8599 15.3898C56.7182 15.488 56.5439 15.5275 56.3737 15.5C56.2406 15.5097 56.1069 15.5097 55.9737 15.5V16.5067C56.1348 16.5306 56.2975 16.5418 56.4604 16.54C56.8766 16.5703 57.2902 16.4533 57.629 16.2096C57.9677 15.9659 58.2101 15.6109 58.3137 15.2067L60.4737 9.46H59.2137L57.9537 13.1067Z" fill="white"/>
<path d="M83.3332 8.28667C83.07 8.28515 82.8091 8.3356 82.5654 8.43513C82.3217 8.53466 82.1001 8.68131 81.9132 8.86667L81.8199 8.40667H80.2266V17.02L82.0399 16.6267V14.54C82.4006 14.842 82.8561 15.0073 83.3266 15.0067C84.6199 15.0067 85.8066 13.9467 85.8066 11.6C85.8066 9.45334 84.6066 8.28667 83.3332 8.28667ZM82.8999 13.3733C82.7408 13.3825 82.5818 13.3562 82.4342 13.2962C82.2866 13.2362 82.1542 13.1442 82.0466 13.0267V10.2867C82.1546 10.1649 82.2885 10.0688 82.4384 10.0053C82.5884 9.94189 82.7506 9.91274 82.9132 9.92C83.5799 9.92 84.0332 10.6733 84.0332 11.64C84.0332 12.6067 83.5732 13.3733 82.8999 13.3733Z" fill="white"/>
<path d="M89.1533 8.28667C87.4067 8.28667 86.3467 9.79333 86.3467 11.6933C86.3467 13.94 87.6 15.08 89.3867 15.08C90.084 15.0914 90.7726 14.9238 91.3867 14.5933V13.0933C90.829 13.3747 90.2113 13.5166 89.5867 13.5067C88.8667 13.5067 88.2533 13.2467 88.16 12.3733H91.7467C91.7467 12.2733 91.7467 11.88 91.7467 11.7067C91.8067 9.79333 90.9 8.28667 89.1533 8.28667ZM88.1733 11C88.1733 10.16 88.6867 9.80667 89.14 9.80667C89.5933 9.80667 90.0733 10.16 90.0733 11H88.1733Z" fill="white"/>
<path d="M75.3329 8.90667L75.2195 8.36H73.6729V14.8333H75.4595V10.4467C75.6209 10.2508 75.8382 10.1088 76.0824 10.0397C76.3266 9.97059 76.5861 9.97768 76.8262 10.06V8.36C76.5534 8.25316 76.251 8.24976 75.976 8.35046C75.7009 8.45116 75.4721 8.64899 75.3329 8.90667Z" fill="white"/>
<path d="M66.307 10.3067C66.307 10.0133 66.547 9.9 66.927 9.9C67.5567 9.91356 68.1741 10.0782 68.727 10.38V8.62667C68.1553 8.39553 67.5435 8.27997 66.927 8.28667C65.4536 8.28667 64.4736 9.07333 64.4736 10.3933C64.4736 12.46 67.2336 12.1267 67.2336 13.0133C67.2336 13.36 66.9403 13.4733 66.567 13.4733C65.8626 13.4322 65.1777 13.2267 64.567 12.8733V14.6667C65.1964 14.9474 65.8778 15.0928 66.567 15.0933C68.0736 15.0933 69.1136 14.3267 69.1136 12.9867C69.0803 10.7467 66.307 11.1467 66.307 10.3067Z" fill="white"/>
<path d="M71.5198 6.82666L69.7532 7.21333V13.1667C69.7441 13.4176 69.7862 13.6677 69.877 13.9017C69.9679 14.1358 70.1055 14.3488 70.2814 14.5279C70.4574 14.707 70.668 14.8483 70.9004 14.9432C71.1328 15.0382 71.3822 15.0847 71.6332 15.08C72.0711 15.0996 72.5075 15.015 72.9065 14.8333V13.3333C72.6732 13.4333 71.5332 13.7733 71.5332 12.6667V9.99999H72.9065V8.43999H71.5332L71.5198 6.82666Z" fill="white"/>
<path d="M77.5 7.8L79.32 7.42V5.98L77.5 6.36V7.8Z" fill="white"/>
<path d="M79.32 8.40666H77.5V14.8333H79.32V8.40666Z" fill="white"/>
</g>
<defs>
<clipPath id="clip0_6069_80304">
<rect width="100" height="22.6667" fill="white"/>
</clipPath>
</defs>
</svg>
