<svg width="16" height="17" viewBox="0 0 16 17" fill="none" xmlns="http://www.w3.org/2000/svg">
<ellipse cx="8.00031" cy="8.28687" rx="7.68" ry="7.68" fill="#940DFF"/>
<ellipse cx="8.00031" cy="8.28687" rx="7.68" ry="7.68" fill="#E3E3E3"/>
<ellipse cx="8.00031" cy="8.28687" rx="7.68" ry="7.68" fill="url(#paint0_linear_5755_76892)"/>
<ellipse cx="8.00031" cy="8.28687" rx="7.68" ry="7.68" fill="url(#paint1_linear_5755_76892)"/>
<circle cx="7.99961" cy="8.28687" r="6.4" fill="url(#paint2_radial_5755_76892)"/>
<path fill-rule="evenodd" clip-rule="evenodd" d="M11.8981 8.26856C11.8981 6.10873 10.141 4.35164 7.98137 4.35164C5.82155 4.35164 4.06445 6.10873 4.06445 8.26856C4.06445 10.4284 5.82154 12.1855 7.98136 12.1855V12.1856C7.99033 12.1856 7.99928 12.1855 8.00823 12.1855H11.1628C11.476 12.1855 11.7299 11.9316 11.7299 11.6186C11.7299 11.3056 11.476 11.0519 11.1628 11.0519H10.7347C11.4528 10.3415 11.8983 9.35614 11.8983 8.26865H10.7647C10.7647 9.7958 9.52833 11.0397 8.00401 11.0519H7.98137C6.46174 11.0519 5.22296 9.82822 5.19822 8.31466L5.198 8.26856C5.198 6.73386 6.44645 5.48541 7.98137 5.48541V5.48518C9.51608 5.48518 10.7648 6.73386 10.7648 8.26856H11.8981Z" fill="#00FFDD"/>
<defs>
<linearGradient id="paint0_linear_5755_76892" x1="15.6803" y1="0.606843" x2="3.15096" y2="14.2549" gradientUnits="userSpaceOnUse">
<stop offset="0.42003" stop-color="#FFF394"/>
<stop offset="1" stop-color="#A46CFF"/>
</linearGradient>
<linearGradient id="paint1_linear_5755_76892" x1="13.1203" y1="2.68667" x2="4.20579" y2="14.9899" gradientUnits="userSpaceOnUse">
<stop stop-color="#FFD3FB"/>
<stop offset="0.484375" stop-color="#F5FFCB"/>
<stop offset="1" stop-color="#9FFFDD"/>
</linearGradient>
<radialGradient id="paint2_radial_5755_76892" cx="0" cy="0" r="1" gradientUnits="userSpaceOnUse" gradientTransform="translate(7.99966 8.28685) rotate(49.3926) scale(5.8997 5.89978)">
<stop offset="0.354167" stop-color="#20225C"/>
<stop offset="1" stop-color="#0D0E2C"/>
</radialGradient>
</defs>
</svg>
