<svg width="16" height="17" viewBox="0 0 16 17" fill="none" xmlns="http://www.w3.org/2000/svg">
<path fill-rule="evenodd" clip-rule="evenodd" d="M15.0249 7.75138C14.4401 3.10553 9.42369 0.430044 5.13363 2.47598C2.22613 3.86254 0.707211 7.04318 1.48008 10.1265C2.16439 12.8565 4.5497 14.8911 7.43279 15.204L7.58069 15.22L7.58144 14.2807C7.58206 13.5336 7.5919 13.2716 7.62957 13.0003C8.11317 9.5176 10.2794 7.86888 14.2958 7.92646C15.1342 7.93848 15.0509 7.95848 15.0249 7.75138ZM14.3576 9.03628C13.9923 8.99174 12.8702 9.07945 12.2866 9.19818C9.87274 9.68913 8.65854 11.4248 8.69982 14.3251C8.70617 14.77 8.37146 15.0504 11.6252 11.8745L14.5135 9.05528L14.3576 9.03628Z" fill="white"/>
</svg>
