<svg width="69" height="69" viewBox="0 0 69 69" fill="none" xmlns="http://www.w3.org/2000/svg">
<path fill-rule="evenodd" clip-rule="evenodd" d="M34.8885 68.9628C53.7071 68.9628 68.9626 53.7073 68.9626 34.8887C68.9626 16.0702 53.7071 0.814667 34.8885 0.814667C16.0699 0.814667 0.814453 16.0702 0.814453 34.8887C0.814453 53.7073 16.0699 68.9628 34.8885 68.9628ZM32.9463 45.0769L49.1315 28.8917C50.29 27.7332 50.29 25.8591 49.1315 24.6665C47.973 23.508 46.0648 23.508 44.9063 24.6665L30.8337 38.7391L24.8708 32.7761C23.7122 31.6176 21.8041 31.6176 20.6456 32.7761C19.487 33.9347 19.487 35.8087 20.6456 37.0013L28.7552 45.0769C29.3345 45.6562 30.0841 45.9287 30.8337 45.9287C31.6174 45.9287 32.367 45.6562 32.9463 45.0769Z" fill="#00FFDD"/>
</svg>
