<svg width="50" height="51" viewBox="0 0 50 51" fill="none" xmlns="http://www.w3.org/2000/svg">
<path fill-rule="evenodd" clip-rule="evenodd" d="M4.16699 25.3182C4.16699 14.3434 12.9378 4.45353 25.042 4.45353C36.8753 4.45353 45.8337 14.1556 45.8337 25.2556C45.8337 38.129 35.3337 46.1202 25.0003 46.1202C21.5837 46.1202 17.792 45.2022 14.7503 43.4078C13.6878 42.761 12.792 42.2811 11.6462 42.6567L7.43783 43.9085C6.37533 44.2424 5.41699 43.4078 5.72949 42.2811L7.12533 37.6074C7.35449 36.9606 7.31283 36.2721 6.97949 35.7296C5.18783 32.433 4.16699 28.8234 4.16699 25.3182ZM22.292 25.3182C22.292 26.7995 23.4795 27.9888 24.9587 28.0097C26.4378 28.0097 27.6253 26.7995 27.6253 25.339C27.6253 23.8576 26.4378 22.6684 24.9587 22.6684C23.5003 22.6475 22.292 23.8576 22.292 25.3182ZM31.8962 25.339C31.8962 26.7995 33.0837 28.0097 34.5628 28.0097C36.042 28.0097 37.2295 26.7995 37.2295 25.339C37.2295 23.8576 36.042 22.6684 34.5628 22.6684C33.0837 22.6684 31.8962 23.8576 31.8962 25.339ZM15.3545 28.0097C13.8962 28.0097 12.6878 26.7996 12.6878 25.339C12.6878 23.8576 13.8753 22.6684 15.3545 22.6684C16.8337 22.6684 18.0212 23.8576 18.0212 25.339C18.0212 26.7996 16.8337 27.9888 15.3545 28.0097Z" fill="white"/>
</svg>
