<svg width="70" height="70" viewBox="0 0 70 70" fill="none" xmlns="http://www.w3.org/2000/svg">
<path fill-rule="evenodd" clip-rule="evenodd" d="M0 35C0 15.6835 15.68 0 35 0C54.355 0 70 15.6835 70 35C70 54.3235 54.355 70 35 70C15.68 70 0 54.3235 0 35ZM31.92 21.735C31.92 20.0585 33.32 18.655 35 18.655C36.68 18.655 38.045 20.0585 38.045 21.735V37.205C38.045 38.8885 36.68 40.25 35 40.25C33.32 40.25 31.92 38.8885 31.92 37.205V21.735ZM35.035 51.3835C33.32 51.3835 31.955 49.9835 31.955 48.3035C31.955 46.6235 33.32 45.2585 35 45.2585C36.715 45.2585 38.08 46.6235 38.08 48.3035C38.08 49.9835 36.715 51.3835 35.035 51.3835Z" fill="#FCFF6B"/>
</svg>
