<svg width="24" height="24" viewBox="0 0 24 24" fill="none" xmlns="http://www.w3.org/2000/svg">
<g clip-path="url(#clip0_5245_44520)">
<path d="M19.6239 5.39005C18.2217 4.74666 16.7181 4.27263 15.1459 4.00114C15.1173 3.9959 15.0887 4.00899 15.0739 4.03518C14.8805 4.37914 14.6664 4.82785 14.5163 5.18053C12.8254 4.92737 11.1431 4.92737 9.48679 5.18053C9.33677 4.81999 9.11477 4.37914 8.92053 4.03518C8.90579 4.00987 8.87717 3.99677 8.84856 4.00114C7.27726 4.27176 5.7736 4.74579 4.37053 5.39005C4.35839 5.39528 4.34798 5.40401 4.34104 5.41536C1.48894 9.67637 0.707629 13.8326 1.09092 17.9374C1.09265 17.9574 1.10392 17.9766 1.11953 17.9889C3.00128 19.3708 4.82405 20.2097 6.61301 20.7658C6.64163 20.7745 6.67198 20.7641 6.69019 20.7405C7.11336 20.1626 7.49058 19.5532 7.81403 18.9125C7.83311 18.8749 7.8149 18.8304 7.77588 18.8156C7.17753 18.5886 6.60781 18.3119 6.05976 17.9976C6.0164 17.9723 6.01293 17.9103 6.05282 17.8806C6.16816 17.7942 6.28349 17.7043 6.39362 17.6135C6.41356 17.5969 6.44131 17.5934 6.46473 17.6039C10.0652 19.2477 13.9631 19.2477 17.5211 17.6039C17.5445 17.5925 17.5722 17.596 17.593 17.6126C17.7032 17.7034 17.8185 17.7942 17.9347 17.8806C17.9746 17.9103 17.972 17.9723 17.9286 17.9976C17.3806 18.318 16.8108 18.5886 16.2116 18.8147C16.1726 18.8295 16.1553 18.8749 16.1743 18.9125C16.5047 19.5524 16.882 20.1617 17.2973 20.7396C17.3147 20.7641 17.3459 20.7745 17.3745 20.7658C19.1721 20.2097 20.9949 19.3708 22.8767 17.9889C22.8931 17.9766 22.9035 17.9583 22.9053 17.9382C23.364 13.1927 22.137 9.07052 19.6525 5.41623C19.6465 5.40401 19.6361 5.39528 19.6239 5.39005ZM8.35167 15.438C7.26772 15.438 6.37454 14.4428 6.37454 13.2207C6.37454 11.9985 7.25037 11.0033 8.35167 11.0033C9.46164 11.0033 10.3461 12.0072 10.3288 13.2207C10.3288 14.4428 9.45297 15.438 8.35167 15.438ZM15.6619 15.438C14.5779 15.438 13.6847 14.4428 13.6847 13.2207C13.6847 11.9985 14.5606 11.0033 15.6619 11.0033C16.7718 11.0033 17.6563 12.0072 17.639 13.2207C17.639 14.4428 16.7718 15.438 15.6619 15.438Z" fill="white"/>
</g>
<defs>
<clipPath id="clip0_5245_44520">
<rect width="24" height="24" fill="white"/>
</clipPath>
</defs>
</svg>
