<svg  xmlns="http://www.w3.org/2000/svg" xmlns:xlink="http://www.w3.org/1999/xlink" shape-rendering="crispEdges" height="128" width="128" viewBox="0 0 29 29"><path fill="#FFFFFF00" d="M0,0 h29v29H0z"></path><path fill="#000000" d="M0 0h7v1H0zM9 0h1v1H9zM12 0h1v1H12zM14 0h1v1H14zM17 0h4v1H17zM22,0 h7v1H22zM0 1h1v1H0zM6 1h1v1H6zM8 1h4v1H8zM13 1h1v1H13zM18 1h3v1H18zM22 1h1v1H22zM28,1 h1v1H28zM0 2h1v1H0zM2 2h3v1H2zM6 2h1v1H6zM10 2h1v1H10zM15 2h1v1H15zM19 2h2v1H19zM22 2h1v1H22zM24 2h3v1H24zM28,2 h1v1H28zM0 3h1v1H0zM2 3h3v1H2zM6 3h1v1H6zM10 3h2v1H10zM13 3h1v1H13zM16 3h1v1H16zM18 3h1v1H18zM22 3h1v1H22zM24 3h3v1H24zM28,3 h1v1H28zM0 4h1v1H0zM2 4h3v1H2zM6 4h1v1H6zM8 4h1v1H8zM12 4h2v1H12zM16 4h1v1H16zM18 4h2v1H18zM22 4h1v1H22zM24 4h3v1H24zM28,4 h1v1H28zM0 5h1v1H0zM6 5h1v1H6zM14 5h6v1H14zM22 5h1v1H22zM28,5 h1v1H28zM0 6h7v1H0zM8 6h1v1H8zM10 6h1v1H10zM12 6h1v1H12zM14 6h1v1H14zM16 6h1v1H16zM18 6h1v1H18zM20 6h1v1H20zM22,6 h7v1H22zM9 7h2v1H9zM12 7h1v1H12zM15 7h1v1H15zM17 7h1v1H17zM20 7h1v1H20zM0 8h1v1H0zM2 8h1v1H2zM4 8h1v1H4zM6 8h1v1H6zM11 8h1v1H11zM16 8h2v1H16zM19 8h2v1H19zM24 8h1v1H24zM27 8h1v1H27zM0 9h2v1H0zM3 9h2v1H3zM8 9h1v1H8zM10 9h4v1H10zM15 9h2v1H15zM20 9h3v1H20zM25 9h1v1H25zM28,9 h1v1H28zM0 10h1v1H0zM3 10h5v1H3zM9 10h1v1H9zM14 10h4v1H14zM22 10h1v1H22zM24 10h1v1H24zM26,10 h3v1H26zM1 11h1v1H1zM7 11h3v1H7zM11 11h1v1H11zM13 11h2v1H13zM16 11h4v1H16zM24 11h1v1H24zM27 11h1v1H27zM1 12h1v1H1zM5 12h2v1H5zM9 12h2v1H9zM14 12h2v1H14zM17 12h1v1H17zM19 12h2v1H19zM22 12h1v1H22zM25 12h1v1H25zM27,12 h2v1H27zM0 13h1v1H0zM3 13h1v1H3zM8 13h1v1H8zM10 13h1v1H10zM14 13h2v1H14zM17 13h2v1H17zM20 13h3v1H20zM25 13h1v1H25zM28,13 h1v1H28zM3 14h1v1H3zM6 14h2v1H6zM12 14h2v1H12zM17 14h1v1H17zM20 14h2v1H20zM24 14h2v1H24zM27,14 h2v1H27zM0 15h3v1H0zM4 15h1v1H4zM7 15h2v1H7zM10 15h1v1H10zM15 15h1v1H15zM17 15h7v1H17zM25 15h1v1H25zM27 15h1v1H27zM0 16h2v1H0zM5 16h3v1H5zM10 16h1v1H10zM12 16h1v1H12zM16 16h2v1H16zM19 16h5v1H19zM25 16h1v1H25zM27,16 h2v1H27zM1 17h2v1H1zM13 17h1v1H13zM15 17h2v1H15zM20 17h3v1H20zM25 17h2v1H25zM28,17 h1v1H28zM0 18h1v1H0zM3 18h1v1H3zM6 18h2v1H6zM9 18h1v1H9zM11 18h2v1H11zM14 18h4v1H14zM20 18h1v1H20zM22 18h3v1H22zM27,18 h2v1H27zM1 19h2v1H1zM5 19h1v1H5zM7 19h1v1H7zM9 19h1v1H9zM11 19h4v1H11zM16 19h2v1H16zM20 19h1v1H20zM23 19h1v1H23zM25 19h1v1H25zM27 19h1v1H27zM0 20h1v1H0zM5 20h2v1H5zM9 20h1v1H9zM14 20h4v1H14zM19 20h6v1H19zM8 21h5v1H8zM14 21h2v1H14zM19 21h2v1H19zM24 21h1v1H24zM26,21 h3v1H26zM0 22h7v1H0zM9 22h1v1H9zM13 22h1v1H13zM16 22h1v1H16zM19 22h2v1H19zM22 22h1v1H22zM24 22h2v1H24zM27,22 h2v1H27zM0 23h1v1H0zM6 23h1v1H6zM9 23h2v1H9zM15 23h3v1H15zM19 23h2v1H19zM24 23h2v1H24zM28,23 h1v1H28zM0 24h1v1H0zM2 24h3v1H2zM6 24h1v1H6zM8 24h5v1H8zM16 24h2v1H16zM20 24h5v1H20zM27 24h1v1H27zM0 25h1v1H0zM2 25h3v1H2zM6 25h1v1H6zM10 25h2v1H10zM16 25h1v1H16zM19 25h1v1H19zM23 25h2v1H23zM26 25h1v1H26zM0 26h1v1H0zM2 26h3v1H2zM6 26h1v1H6zM8 26h4v1H8zM13 26h1v1H13zM17 26h1v1H17zM20 26h2v1H20zM23 26h3v1H23zM28,26 h1v1H28zM0 27h1v1H0zM6 27h1v1H6zM9 27h3v1H9zM13 27h3v1H13zM17 27h2v1H17zM20 27h2v1H20zM27 27h1v1H27zM0 28h7v1H0zM8 28h2v1H8zM12 28h1v1H12zM16 28h2v1H16zM19 28h2v1H19zM22 28h1v1H22zM24 28h2v1H24zM27,28 h2v1H27z"></path></svg>