<svg width="50" height="50" viewBox="0 0 50 50" fill="none" xmlns="http://www.w3.org/2000/svg">
<path fill-rule="evenodd" clip-rule="evenodd" d="M25.0788 46.875H24.9212H24.9209H24.9208H24.9207C21.0934 46.875 18.1145 46.875 15.7344 46.6593C13.3163 46.4401 11.3632 45.9885 9.63542 44.991C7.49765 43.7567 5.72243 41.9815 4.48819 39.8438C3.49066 38.116 3.03904 36.1629 2.81989 33.7448C2.60415 31.3645 2.60416 28.3855 2.60417 24.558V24.4003C2.60416 20.5728 2.60415 17.5938 2.81989 15.2135C3.03904 12.7955 3.49066 10.8423 4.48819 9.11458C5.72243 6.97681 7.49765 5.20159 9.63542 3.96735C11.3632 2.96982 13.3163 2.5182 15.7344 2.29904C18.1146 2.08331 21.0936 2.08332 24.9211 2.08333H31.6568L31.7708 2.08333L31.7708 7.92083V7.92085V7.92087V7.92089C31.7708 9.7927 31.7707 11.3535 31.9373 12.5927C32.1132 13.9006 32.5 15.0814 33.4489 16.0303C34.3978 16.9792 35.5786 17.366 36.8865 17.5418C38.1256 17.7084 39.6865 17.7084 41.5583 17.7083L47.3958 17.7083L47.3958 17.8225V24.5581C47.3958 28.3855 47.3959 31.3645 47.1801 33.7448C46.961 36.1629 46.5093 38.116 45.5118 39.8438C44.2776 41.9815 42.5024 43.7567 40.3646 44.991C38.6368 45.9885 36.6837 46.4401 34.2656 46.6593C31.8855 46.875 28.9066 46.875 25.0793 46.875H25.0792H25.0791H25.0788ZM41.7125 5.67787C39.7828 3.94682 37.4216 2.79094 34.8958 2.32079V7.8125C34.8958 9.82085 34.8992 11.1699 35.0345 12.1763C35.1637 13.1376 35.3871 13.5491 35.6586 13.8206C35.9301 14.0921 36.3415 14.3155 37.3029 14.4447C38.3092 14.58 39.6583 14.5833 41.6667 14.5833H47.1584C46.6882 12.0576 45.5323 9.69637 43.8013 7.76664C43.5464 7.48252 43.27 7.20614 42.8064 6.7425L42.7365 6.67266C42.2729 6.209 41.9966 5.93274 41.7125 5.67787ZM18.4326 32.9834C21.932 32.9834 23.8688 30.835 23.8688 28.0436C23.8688 26.888 23.2422 26.237 22.1436 26.237H19.8731C19.0918 26.237 18.5954 26.6439 18.5954 27.3844C18.5954 28.125 19.0999 28.5319 19.8731 28.5319H20.5485L20.5322 28.6947C20.4346 29.6387 19.6371 30.2653 18.514 30.2653C17.0003 30.2653 16.0156 28.9876 16.0156 26.8473C16.0156 24.7559 16.8783 23.5514 18.3431 23.5514C19.1732 23.5514 19.7347 23.8607 20.2881 24.6012C20.7113 25.1628 21.224 25.4232 21.8994 25.4232C22.7783 25.4232 23.3805 24.8291 23.3805 23.9665C23.3805 23.6735 23.3154 23.3968 23.1445 23.0794C22.4528 21.8424 20.6787 20.8333 18.3268 20.8333C14.7054 20.8333 12.5 23.0469 12.5 26.8962C12.5 30.7943 14.7054 32.9834 18.4326 32.9834ZM26.2946 32.9834C27.3932 32.9834 28.0199 32.3324 28.0199 31.1768V22.64C28.0199 21.4844 27.3932 20.8333 26.2946 20.8333C25.196 20.8333 24.5693 21.4844 24.5693 22.64V31.1768C24.5693 32.3324 25.196 32.9834 26.2946 32.9834ZM32.4313 31.1768C32.4313 32.3324 31.8047 32.9834 30.7061 32.9834C29.6074 32.9834 28.9808 32.3324 28.9808 31.1768V22.8434C28.9808 21.6878 29.6074 21.0368 30.7061 21.0368H35.8737C36.8014 21.0368 37.3955 21.5332 37.3955 22.4121C37.3955 23.291 36.7852 23.7874 35.8737 23.7874H32.4313V26.0335H35.5238C36.3864 26.0335 36.9398 26.5055 36.9398 27.3275C36.9398 28.1494 36.4027 28.6214 35.5238 28.6214H32.4313V31.1768Z" fill="white"/>
</svg>
