<svg width="24" height="24" viewBox="0 0 24 24" fill="none" xmlns="http://www.w3.org/2000/svg">
<path fill-rule="evenodd" clip-rule="evenodd" d="M0 5.77778C0 2.5868 2.6863 0 6 0H18C21.3137 0 24 2.5868 24 5.77778V17.3333C24 20.5243 21.3137 23.1111 18 23.1111H6C2.6863 23.1111 0 20.5243 0 17.3333V5.77778ZM15.6 11.5556C15.6 13.4702 13.9883 15.0222 12 15.0222C10.0117 15.0222 8.4 13.4702 8.4 11.5556C8.4 9.64092 10.0117 8.08889 12 8.08889C13.9883 8.08889 15.6 9.64092 15.6 11.5556ZM20.4005 4.62242C20.4005 5.26061 19.8633 5.77798 19.2005 5.77798C18.5377 5.77798 18.0005 5.26061 18.0005 4.62242C18.0005 3.98423 18.5377 3.46687 19.2005 3.46687C19.8633 3.46687 20.4005 3.98423 20.4005 4.62242Z" fill="white"/>
<path opacity="0.44" fill-rule="evenodd" clip-rule="evenodd" d="M18 11.5556C18 14.7466 15.3137 17.3334 12 17.3334C8.6863 17.3334 6 14.7466 6 11.5556C6 8.36464 8.6863 5.77783 12 5.77783C15.3137 5.77783 18 8.36464 18 11.5556ZM15.6 11.5556C15.6 13.4702 13.9883 15.0223 12 15.0223C10.0117 15.0223 8.4 13.4702 8.4 11.5556C8.4 9.64097 10.0117 8.08894 12 8.08894C13.9883 8.08894 15.6 9.64097 15.6 11.5556Z" fill="#C4C4C4"/>
</svg>
