<svg width="24" height="24" viewBox="0 0 24 24" fill="none" xmlns="http://www.w3.org/2000/svg">
<path d="M20.317 4.35967C18.7873 3.6578 17.147 3.14068 15.4319 2.8445C15.4007 2.83879 15.3694 2.85307 15.3534 2.88164C15.1424 3.25687 14.9087 3.74637 14.7451 4.13111C12.9004 3.85494 11.0652 3.85494 9.25832 4.13111C9.09466 3.7378 8.85248 3.25687 8.64058 2.88164C8.6245 2.85403 8.59328 2.83974 8.56206 2.8445C6.84792 3.13973 5.20756 3.65685 3.67694 4.35967C3.66369 4.36539 3.65234 4.37491 3.64477 4.38729C0.533392 9.03566 -0.31895 13.5697 0.0991801 18.0476C0.101072 18.0695 0.11337 18.0905 0.130398 18.1038C2.18321 19.6114 4.17169 20.5266 6.12328 21.1332C6.1545 21.1427 6.18761 21.1313 6.20748 21.1056C6.66912 20.4752 7.08063 19.8104 7.43349 19.1114C7.4543 19.0705 7.43443 19.0219 7.39186 19.0057C6.73913 18.7581 6.11761 18.4562 5.51974 18.1134C5.47244 18.0857 5.46865 18.0181 5.51217 17.9857C5.63799 17.8915 5.7638 17.7934 5.88395 17.6943C5.9057 17.6762 5.93598 17.6724 5.96152 17.6839C9.88929 19.4771 14.1415 19.4771 18.023 17.6839C18.0485 17.6715 18.0788 17.6753 18.1015 17.6934C18.2216 17.7924 18.3474 17.8915 18.4742 17.9857C18.5177 18.0181 18.5149 18.0857 18.4676 18.1134C17.8697 18.4629 17.2482 18.7581 16.5945 19.0047C16.5519 19.0209 16.533 19.0705 16.5538 19.1114C16.9143 19.8095 17.3258 20.4742 17.7789 21.1047C17.7978 21.1313 17.8319 21.1427 17.8631 21.1332C19.8241 20.5266 21.8126 19.6114 23.8654 18.1038C23.8834 18.0905 23.8948 18.0705 23.8967 18.0486C24.3971 12.8717 23.0585 8.37474 20.3482 4.38824C20.3416 4.37491 20.3303 4.36539 20.317 4.35967ZM8.02001 15.3211C6.83751 15.3211 5.86313 14.2354 5.86313 12.9022C5.86313 11.5689 6.81859 10.4832 8.02001 10.4832C9.23088 10.4832 10.1958 11.5784 10.1769 12.9022C10.1769 14.2354 9.22142 15.3211 8.02001 15.3211ZM15.9948 15.3211C14.8123 15.3211 13.8379 14.2354 13.8379 12.9022C13.8379 11.5689 14.7933 10.4832 15.9948 10.4832C17.2056 10.4832 18.1705 11.5784 18.1516 12.9022C18.1516 14.2354 17.2056 15.3211 15.9948 15.3211Z" fill="white"/>
</svg>
