<svg width="101" height="34" viewBox="0 0 101 34" fill="none" xmlns="http://www.w3.org/2000/svg">
<path fill-rule="evenodd" clip-rule="evenodd" d="M98.2614 27.0906V27.0906C97.166 27.0906 96.2773 26.202 96.2773 25.1066C96.2773 24.0112 97.166 23.1234 98.2614 23.1234C99.356 23.1234 100.245 24.0112 100.245 25.1066C100.245 26.202 99.356 27.0906 98.2614 27.0906" fill="#0AFFD2"/>
<path fill-rule="evenodd" clip-rule="evenodd" d="M84.7408 23.9999C88.1328 23.9999 90.8181 21.3146 90.8181 17.8876C90.8181 14.4941 88.1328 11.8088 84.7408 11.8088C81.3131 11.8088 78.6278 14.4941 78.6278 17.8876C78.6278 21.3146 81.3131 23.9999 84.7408 23.9999M92.3162 9.05278H92.324C93.1512 9.05278 93.8221 9.72372 93.8221 10.5509V25.2586C93.8221 26.0858 93.1512 26.7559 92.324 26.7559H92.3162C91.489 26.7559 90.8181 26.0858 90.8181 25.2586V24.7058C89.3246 26.0096 87.5132 26.8578 85.4398 27.0133C80.5535 27.381 76.1392 23.7231 75.6393 18.8493C75.0803 13.401 79.3314 8.80634 84.7408 8.80634C87.1081 8.80634 89.1583 9.69029 90.8181 11.1379V10.5509C90.8181 9.72372 91.489 9.05278 92.3162 9.05278" fill="#0AFFD2"/>
<path fill-rule="evenodd" clip-rule="evenodd" d="M71.9298 2.05798H71.9368C72.764 2.05798 73.4357 2.72892 73.4357 3.55612V25.2592C73.4357 26.0864 72.764 26.7574 71.9368 26.7574H71.9298C71.1034 26.7574 70.4316 26.0864 70.4316 25.2592V3.55612C70.4316 2.72892 71.1034 2.05798 71.9298 2.05798" fill="#0AFFD2"/>
<path fill-rule="evenodd" clip-rule="evenodd" d="M59.1426 11.8087C55.7491 11.8087 53.0638 14.4947 53.0638 17.9217C53.0638 21.3152 55.7491 24.0005 59.1426 24.0005C62.5696 24.0005 65.2549 21.3152 65.2549 17.9217C65.2549 14.4947 62.5696 11.8087 59.1426 11.8087M51.5587 9.05341H51.5665C52.3929 9.05341 53.0638 9.72356 53.0638 10.5508V11.1035C54.7913 9.5292 57.1438 8.62426 59.7592 8.79141C64.0405 9.06585 67.6253 12.3886 68.2053 16.6381C68.9687 22.2295 64.657 27.003 59.1426 27.003C56.7745 27.003 54.6552 26.1206 53.0638 24.6707V32.5019C53.0638 33.3298 52.3929 34 51.5665 34H51.5587C50.7315 34 50.0605 33.3298 50.0605 32.5019V10.5508C50.0605 9.72356 50.7315 9.05341 51.5587 9.05341" fill="#0AFFD2"/>
<path fill-rule="evenodd" clip-rule="evenodd" d="M37.996 23.9653C41.3888 23.9653 44.0733 21.2792 44.0733 17.8523C44.0733 14.4595 41.3888 11.7735 37.996 11.7735C34.5691 11.7735 31.883 14.4595 31.883 17.8523C31.883 21.2792 34.5691 23.9653 37.996 23.9653M45.5714 9.01819H45.58C46.4064 9.01819 47.0774 9.68913 47.0774 10.5163V25.224C47.0774 26.0512 46.4064 26.7214 45.58 26.7214H45.5714C44.745 26.7214 44.0733 26.0512 44.0733 25.224V24.6712C42.5798 25.975 40.7684 26.8224 38.695 26.9787C33.8095 27.3472 29.3952 23.6885 28.8953 18.8148C28.3355 13.3657 32.5874 8.77097 37.996 8.77097C40.3634 8.77097 42.4142 9.6557 44.0733 11.1025V10.5163C44.0733 9.68913 44.745 9.01819 45.5714 9.01819" fill="#0AFFD2"/>
<mask id="mask0_8672_129146" style="mask-type:luminance" maskUnits="userSpaceOnUse" x="0" y="0" width="28" height="28">
<path fill-rule="evenodd" clip-rule="evenodd" d="M0.222656 0H27.3064V27.0843H0.222656V0Z" fill="white"/>
</mask>
<g mask="url(#mask0_8672_129146)">
<path fill-rule="evenodd" clip-rule="evenodd" d="M23.3888 13.5423C23.3888 18.8483 19.0717 23.1655 13.7656 23.1655V23.1655V27.0846C21.2322 27.0846 27.3079 21.0096 27.3079 13.5423V13.5423H23.3888Z" fill="url(#paint0_linear_8672_129146)"/>
<path fill-rule="evenodd" clip-rule="evenodd" d="M13.7649 -0.000396729C21.2315 -0.000396729 27.3064 6.07455 27.3064 13.5419H23.3881C23.3881 8.23584 19.071 3.91869 13.7649 3.91869V3.91947C8.45811 3.91947 4.14175 8.23584 4.14175 13.5419L4.14252 13.7013C4.22804 18.9342 8.51098 23.1651 13.7649 23.1651H24.7642C25.8472 23.1651 26.7249 24.042 26.7249 25.1242C26.7249 26.2064 25.8472 27.0842 24.7642 27.0842H13.7649C6.2976 27.0842 0.222656 21.0092 0.222656 13.5419C0.222656 6.07455 6.2976 -0.000396729 13.7649 -0.000396729" fill="#0AFFD2"/>
<path fill-rule="evenodd" clip-rule="evenodd" d="M13.7655 18.7627V18.7627C10.8819 18.7627 8.54492 16.4258 8.54492 13.5422C8.54492 10.6595 10.8819 8.32169 13.7655 8.32169C16.6482 8.32169 18.986 10.6595 18.986 13.5422C18.986 16.4258 16.6482 18.7627 13.7655 18.7627" fill="#2E3192"/>
</g>
<defs>
<linearGradient id="paint0_linear_8672_129146" x1="20.1841" y1="11.78" x2="8.21691" y2="21.101" gradientUnits="userSpaceOnUse">
<stop offset="0.000923775" stop-color="#00FFDC"/>
<stop offset="1" stop-color="#2E3192"/>
</linearGradient>
</defs>
</svg>
