<svg width="13" height="12" viewBox="0 0 13 12" fill="none" xmlns="http://www.w3.org/2000/svg">
<path fill-rule="evenodd" clip-rule="evenodd" d="M4.06426 2.85714C3.27528 2.85714 2.63569 2.21755 2.63569 1.42857C2.63569 0.639593 3.27528 0 4.06426 0H10.9214C11.7104 0 12.35 0.639593 12.35 1.42857V8.28572C12.35 9.07469 11.7104 9.71429 10.9214 9.71429C10.1324 9.71429 9.49283 9.07469 9.49283 8.28572V4.87745L2.7887 11.5816C2.23081 12.1395 1.32629 12.1395 0.768395 11.5816C0.210503 11.0237 0.210503 10.1192 0.768395 9.56128L7.47253 2.85714H4.06426Z" fill="white"/>
<path fill-rule="evenodd" clip-rule="evenodd" d="M4.06426 2.85714C3.27528 2.85714 2.63569 2.21755 2.63569 1.42857C2.63569 0.639593 3.27528 0 4.06426 0H10.9214C11.7104 0 12.35 0.639593 12.35 1.42857V8.28572C12.35 9.07469 11.7104 9.71429 10.9214 9.71429C10.1324 9.71429 9.49283 9.07469 9.49283 8.28572V4.87745L2.7887 11.5816C2.23081 12.1395 1.32629 12.1395 0.768395 11.5816C0.210503 11.0237 0.210503 10.1192 0.768395 9.56128L7.47253 2.85714H4.06426Z" fill="url(#paint0_linear_5215_44837)"/>
<defs>
<linearGradient id="paint0_linear_5215_44837" x1="11.9214" y1="0.428608" x2="0.349985" y2="12" gradientUnits="userSpaceOnUse">
<stop stop-color="#FFD4FB"/>
<stop offset="0.505208" stop-color="#FBB6FD"/>
<stop offset="1" stop-color="#F795FF"/>
</linearGradient>
</defs>
</svg>
