<svg width="24" height="24" viewBox="0 0 24 24" fill="none" xmlns="http://www.w3.org/2000/svg">
<path fill-rule="evenodd" clip-rule="evenodd" d="M3.6 0C1.61178 0 0 1.61178 0 3.6V20.4C0 22.3883 1.61178 24 3.6 24H20.4C22.3883 24 24 22.3883 24 20.4V3.6C24 1.61178 22.3883 0 20.4 0H3.6ZM13.2 4.79985C13.8627 4.79985 14.4 5.33712 14.4 5.99985C14.4 7.32534 15.4744 8.39985 16.8 8.39985C17.4627 8.39985 18 8.93711 18 9.59985C18 10.2626 17.4627 10.7999 16.8 10.7999C15.9256 10.7999 15.1059 10.5661 14.4 10.1577V14.9999V15.0037C14.3978 17.3215 12.5182 19.1999 10.2 19.1999C7.88036 19.1999 5.99996 17.3195 5.99996 14.9999C5.99996 13.1071 7.40768 11.2206 9.36124 10.8241C10.0107 10.6922 10.6441 11.1119 10.776 11.7614C10.9078 12.4109 10.4882 13.0442 9.83864 13.1761C9.07444 13.3313 8.39996 14.1749 8.39996 14.9999C8.39996 15.9939 9.20584 16.7999 10.2 16.7999C11.194 16.7999 12 15.9939 12 14.9999V5.99985C12 5.33712 12.5372 4.79985 13.2 4.79985Z" fill="white"/>
</svg>
