<svg width="24" height="24" viewBox="0 0 24 24" fill="none" xmlns="http://www.w3.org/2000/svg">
<g clip-path="url(#clip0_5245_44494)">
<g clip-path="url(#clip1_5245_44494)">
<path fill-rule="evenodd" clip-rule="evenodd" d="M16.3864 8.94166C17.8027 9.95651 19.5378 10.5537 21.4117 10.5537V6.93882C21.057 6.93896 20.7033 6.90185 20.3564 6.82811V9.67356C18.4826 9.67356 16.7477 9.07639 15.331 8.06153V15.4383C15.331 19.1286 12.3467 22.12 8.66561 22.12C7.29215 22.12 6.01549 21.7037 4.95496 20.9898C6.16535 22.2304 7.85328 23.0001 9.72071 23.0001C13.4021 23.0001 16.3865 20.0087 16.3865 16.3183V8.94166H16.3864ZM17.6883 5.29473C16.9645 4.50208 16.4892 3.47762 16.3864 2.34505V1.88013H15.3863C15.638 3.31953 16.4966 4.54933 17.6883 5.29473ZM7.28322 18.1582C6.87886 17.6266 6.66029 16.9764 6.66126 16.3078C6.66126 14.62 8.02631 13.2516 9.71035 13.2516C10.0242 13.2514 10.3361 13.2996 10.6353 13.3947V9.69913C10.2857 9.65112 9.933 9.63077 9.58029 9.63826V12.5147C9.28102 12.4196 8.96893 12.3714 8.65499 12.3716C6.97095 12.3716 5.60603 13.74 5.60603 15.4279C5.60603 16.6214 6.28829 17.6548 7.28322 18.1582Z" fill="#EE1D52"/>
<path fill-rule="evenodd" clip-rule="evenodd" d="M15.331 8.06153C16.7477 9.07638 18.4826 9.67356 20.3564 9.67356V6.82811C19.3104 6.60486 18.3845 6.05687 17.6883 5.29473C16.4966 4.54933 15.638 3.31953 15.3863 1.88013H12.7593V16.3182C12.7534 18.0014 11.3906 19.3642 9.71022 19.3642C8.71996 19.3642 7.84021 18.8911 7.28309 18.1581C6.28816 17.6548 5.6059 16.6214 5.6059 15.4279C5.6059 13.74 6.97081 12.3716 8.65486 12.3716C8.97749 12.3716 9.28846 12.4219 9.58016 12.5147V9.63826C5.96372 9.71315 3.05518 12.6753 3.05518 16.3183C3.05518 18.1369 3.7795 19.7855 4.95495 20.99C6.01549 21.7038 7.29215 22.1201 8.6656 22.1201C12.3467 22.1201 15.331 19.1286 15.331 15.4385V8.06153Z" fill="white"/>
<path fill-rule="evenodd" clip-rule="evenodd" d="M20.3564 6.82798V6.05856C19.4132 6.05999 18.4886 5.7952 17.6883 5.29447C18.3967 6.07191 19.3295 6.60803 20.3564 6.82798ZM15.3863 1.88C15.3623 1.74245 15.3438 1.60398 15.3311 1.46492V1H11.7039V15.4382C11.6981 17.1212 10.3355 18.4841 8.65492 18.4841C8.16146 18.4841 7.69571 18.3667 7.28314 18.158C7.84026 18.891 8.72001 19.3641 9.71027 19.3641C11.3906 19.3641 12.7534 18.0012 12.7594 16.3181V1.88H15.3863ZM9.58034 9.63813V8.81901C9.27726 8.77745 8.97169 8.75667 8.66579 8.75684C4.98426 8.75684 2 11.7483 2 15.4382C2 17.7516 3.17287 19.7904 4.95514 20.9897C3.77968 19.7852 3.05536 18.1366 3.05536 16.3181C3.05536 12.6752 5.96378 9.71302 9.58034 9.63813Z" fill="#69C9D0"/>
</g>
</g>
<defs>
<clipPath id="clip0_5245_44494">
<rect width="24" height="24" fill="white"/>
</clipPath>
<clipPath id="clip1_5245_44494">
<rect width="19.4118" height="22" fill="white" transform="translate(2 1)"/>
</clipPath>
</defs>
</svg>
