<svg width="24" height="21" viewBox="0 0 24 21" fill="none" xmlns="http://www.w3.org/2000/svg">
<path fill-rule="evenodd" clip-rule="evenodd" d="M8.18251 20.3617C16.4055 20.3617 22.8664 13.5745 22.279 5.09044L23.8998 2.74937C24.1815 2.34258 23.8306 1.80657 23.3281 1.87571L21.3108 2.15321C20.3534 0.850465 18.7763 0 16.9928 0C14.0734 0 11.7066 2.27907 11.7066 5.09044C11.7066 5.69545 11.8163 6.27581 12.0175 6.8141C7.36636 7.22811 3.65533 5.43366 1.70359 2.21967C1.45116 1.804 0.824881 1.8064 0.69067 2.27028C-0.452305 6.22081 0.645232 13.7943 7.00796 15.8366C7.00799 15.8367 7.00802 15.8367 7.00804 15.8367C7.00796 15.8368 7.00788 15.8368 7.0078 15.8369C5.54845 17.2422 3.28335 17.8716 0.546169 18.0464C-0.0170597 18.0824 -0.216045 18.7363 0.293042 18.971C2.5159 19.9961 5.3492 20.3617 8.18251 20.3617Z" fill="white"/>
</svg>
