<svg width="24" height="24" viewBox="0 0 24 24" fill="none" xmlns="http://www.w3.org/2000/svg">
<path fill-rule="evenodd" clip-rule="evenodd" d="M8.50064 21.6649C16.0383 21.6649 21.9609 15.4433 21.4225 7.66623L22.9081 5.52025C23.1664 5.14737 22.8447 4.65603 22.3841 4.7194L20.5349 4.97377C19.6573 3.77959 18.2116 3 16.5767 3C13.9006 3 11.731 5.08914 11.731 7.66623C11.731 8.13011 11.8014 8.57817 11.9323 9.00108C11.8712 8.99913 11.8094 8.99814 11.7469 8.99814C7.48329 9.37772 4.08142 7.7328 2.2923 4.7866C2.06091 4.40556 1.48682 4.40777 1.36379 4.83299C0.316065 8.45431 1.32214 15.3966 7.15464 17.2688C7.28968 17.3122 7.42315 17.3527 7.55506 17.3905C7.51181 17.4323 7.46806 17.4746 7.42381 17.5172C6.08608 18.8054 4.00974 19.3823 1.50066 19.5425C0.984362 19.5755 0.801959 20.1749 1.26862 20.3901C3.30624 21.3298 5.90344 21.6649 8.50064 21.6649Z" fill="white"/>
</svg>
