<svg width="24" height="24" viewBox="0 0 24 24" fill="none" xmlns="http://www.w3.org/2000/svg">
<g clip-path="url(#clip0_5245_44461)">
<path d="M22.5403 7.42047C22.2873 6.46778 21.5419 5.7175 20.5952 5.46287C18.8797 5.00012 12 5.00012 12 5.00012C12 5.00012 5.12042 5.00012 3.40479 5.46287C2.4581 5.7175 1.7125 6.46778 1.45966 7.42047C1 9.14726 1 12.7502 1 12.7502C1 12.7502 1 16.3529 1.45966 18.0799C1.7125 19.0327 2.4581 19.7828 3.40469 20.0377C5.12032 20.5002 11.9999 20.5002 11.9999 20.5002C11.9999 20.5002 18.8796 20.5002 20.5951 20.0377C21.5418 19.7829 22.2872 19.0327 22.5402 18.08C23 16.353 23 12.7503 23 12.7503C23 12.7503 23 9.14735 22.5402 7.42057" fill="#FF0000"/>
<path d="M22.5403 7.42047C22.2873 6.46778 21.5419 5.7175 20.5952 5.46287C18.8797 5.00012 12 5.00012 12 5.00012C12 5.00012 5.12042 5.00012 3.40479 5.46287C2.4581 5.7175 1.7125 6.46778 1.45966 7.42047C1 9.14726 1 12.7502 1 12.7502C1 12.7502 1 16.3529 1.45966 18.0799C1.7125 19.0327 2.4581 19.7828 3.40469 20.0377C5.12032 20.5002 11.9999 20.5002 11.9999 20.5002C11.9999 20.5002 18.8796 20.5002 20.5951 20.0377C21.5418 19.7829 22.2872 19.0327 22.5402 18.08C23 16.353 23 12.7503 23 12.7503C23 12.7503 23 9.14735 22.5402 7.42057" fill="white"/>
<path d="M9.75 16.0215L15.5 12.7506L9.75 9.47925V16.0215Z" fill="white"/>
<path d="M9.75 16.0215L15.5 12.7506L9.75 9.47925V16.0215Z" fill="black"/>
</g>
<defs>
<clipPath id="clip0_5245_44461">
<rect width="24" height="24" fill="white"/>
</clipPath>
</defs>
</svg>
